<svg width="316" height="227" viewBox="0 0 316 227" fill="none" xmlns="http://www.w3.org/2000/svg">
<g clip-path="url(#clip0_820_3866)">
<path d="M157.713 226.996C116.658 226.996 75.6025 226.996 34.545 226.996C18.504 226.996 5.6711 217.352 1.21574 201.912C0.531409 199.34 0.129451 196.701 0.0170714 194.041C-0.238528 189.787 2.09271 187.42 6.32773 187.394C13.2554 187.358 20.183 187.394 27.1106 187.394C51.8288 187.394 76.5514 187.482 101.27 187.314C106.214 187.278 110.766 187.939 114.931 190.647C117.985 192.636 121.281 193.146 124.899 193.128C147.142 193.013 169.381 193.013 191.615 193.128C194.894 193.128 197.869 192.685 200.623 190.912C205.008 188.085 209.754 187.292 214.985 187.323C246.203 187.5 277.422 187.407 308.644 187.411C314.25 187.411 316.462 189.836 315.925 195.389C314.475 210.319 305.538 221.461 291.246 225.658C287.867 226.582 284.378 227.029 280.877 226.987C239.825 227.043 198.77 227.046 157.713 226.996ZM303.96 198.606H300.712C272.138 198.606 243.563 198.65 214.994 198.548C211.543 198.548 208.383 199.023 205.501 200.897C201.182 203.685 196.494 204.412 191.364 204.367C169.294 204.169 147.223 204.169 125.151 204.367C119.677 204.416 114.649 203.694 110.048 200.653C107.457 198.943 104.614 198.548 101.525 198.557C72.6954 198.637 43.8656 198.653 15.0357 198.606H11.8848C12.0875 199.452 12.1669 199.958 12.3255 200.432C15.5381 209.889 24.0698 215.766 34.642 215.766H281.278C282.044 215.766 282.816 215.766 283.587 215.739C293.123 215.345 302.078 207.948 303.96 198.606Z" fill="currentColor"/>
<path d="M282.265 11.2966H33.6989V167.916C33.7387 168.861 33.721 169.808 33.646 170.752C33.2714 173.734 30.9314 175.866 28.1242 175.871C25.317 175.875 22.9769 173.739 22.5935 170.765C22.5208 169.909 22.5031 169.049 22.5406 168.19C22.5406 114.687 22.5406 61.1836 22.5406 7.68027C22.5362 1.80373 24.3563 0 30.1998 0H285.799C291.651 0 293.445 1.80373 293.445 7.69356V168.204C293.445 173.163 291.449 175.893 287.844 175.871C284.239 175.848 282.282 173.141 282.282 168.159V11.2966H282.265Z" fill="currentColor"/>
<path d="M214.376 130.466C214.376 138.262 214.447 145.649 214.376 153.042C214.266 162.539 208.788 170.769 200.486 174.115C185.542 180.155 169.691 169.585 169.387 153.285C169.25 145.809 169.364 138.333 169.364 130.462H92.3366C91.4814 130.499 90.6249 130.483 89.7717 130.413C86.8059 130.036 84.6818 127.696 84.6642 124.873C84.6465 122.05 86.7663 119.688 89.7277 119.289C90.5791 119.216 91.4344 119.198 92.2881 119.236H223.679C228.611 119.236 231.321 121.244 231.299 124.873C231.277 128.503 228.589 130.457 223.626 130.462L214.376 130.466ZM186.283 130.612H180.505C180.505 138.297 180.448 145.836 180.505 153.374C180.504 154.859 180.795 156.331 181.361 157.703C181.926 159.075 182.756 160.321 183.803 161.369C184.849 162.418 186.091 163.248 187.457 163.812C188.824 164.377 190.288 164.664 191.765 164.657C198.124 164.688 203.108 159.782 203.183 153.268C203.253 147.063 203.183 140.899 203.183 134.712V130.621H197.441V133.28C197.441 137.836 197.441 142.389 197.441 146.939C197.441 149.235 196.696 151.176 194.616 152.35C190.676 154.566 186.384 151.907 186.305 147.09C186.212 141.701 186.283 136.294 186.283 130.612Z" fill="currentColor"/>
<path d="M95.9818 54.4576C102.187 48.1911 108.145 42.155 114.129 36.1411C115.725 34.5368 117.576 33.6593 119.92 34.3683C122.123 35.011 123.798 36.5178 123.767 38.6627C123.745 40.5197 123.005 42.7976 121.771 44.1315C116.584 49.72 111.089 55.0204 105.708 60.4316C105.117 61.0255 104.566 61.6592 103.566 62.7362C104.932 63.9416 106.263 65.0052 107.462 66.1929C112.265 70.9586 117.047 75.7493 121.806 80.5652C124.56 83.3528 124.754 86.6057 122.383 88.9856C120.013 91.3654 116.756 91.2458 113.988 88.4892C108.59 83.1002 103.231 77.6668 97.8504 72.26C97.2554 71.6662 96.6297 71.1078 95.5368 70.0885C94.2147 71.5908 93.0601 73.0622 91.7556 74.3917C87.1314 79.1042 82.4821 83.7886 77.8079 88.4449C75.0271 91.2192 71.8057 91.4142 69.4083 89.0299C67.011 86.6456 67.1652 83.3616 69.9063 80.6095C75.2651 75.1806 80.6679 69.796 86.0531 64.3803C86.6437 63.782 87.1945 63.1527 88.1905 62.0802C86.8243 60.8704 85.4979 59.8067 84.2992 58.6146C79.4957 53.8401 74.7157 49.042 69.9592 44.2202C67.1961 41.4282 67.0022 38.1885 69.3731 35.7998C71.744 33.4111 75.0051 33.5352 77.7682 36.2917C83.171 41.6808 88.5298 47.1141 93.9106 52.5209C94.4923 53.097 95.1225 53.6554 95.9818 54.4576Z" fill="currentColor"/>
<path d="M219.811 54.8468C226.263 48.3277 232.151 42.3758 238.06 36.4062C239.642 34.8019 241.423 33.6984 243.763 34.2346C248.306 35.2805 249.708 40.3948 246.323 43.8826C240.947 49.4179 235.469 54.8513 230.018 60.3112C229.414 60.9139 228.718 61.4147 227.858 62.1371C228.74 63.0855 229.335 63.7724 229.974 64.415C235.407 69.8927 240.889 75.3216 246.279 80.8481C249.703 84.3625 248.386 89.4147 243.838 90.5315C241.493 91.1032 239.704 90.0307 238.109 88.4308C232.809 83.0772 227.494 77.7222 222.165 72.3656C221.57 71.7629 221.076 71.0361 220.362 70.1896C219.401 71.076 218.723 71.6876 218.079 72.3302C212.632 77.7946 207.238 83.3121 201.739 88.7278C198.24 92.1668 193.216 90.8417 192.114 86.2725C191.546 83.9148 192.608 82.1155 194.203 80.5112C199.529 75.1695 204.853 69.8248 210.173 64.4771C210.773 63.8744 211.495 63.378 212.337 62.66C211.456 61.6984 210.857 61.0114 210.218 60.3688C204.784 54.8911 199.297 49.4622 193.912 43.9358C190.497 40.4258 191.819 35.3736 196.349 34.2568C198.694 33.6807 200.487 34.7532 202.078 36.353C207.393 41.7066 212.707 47.0617 218.022 52.4182C218.67 53.1883 219.267 53.9995 219.811 54.8468Z" fill="currentColor"/>
</g>
<defs>
<clipPath id="clip0_820_3866">
<rect width="316" height="227" fill="white"/>
</clipPath>
</defs>
</svg>
