<svg width="132" height="16" viewBox="0 0 132 16" fill="none" xmlns="http://www.w3.org/2000/svg">
<path d="M0 14V12H2V2H0V0H6V2H4V12H6V14H0ZM10.64 14V12H12.64V14H10.64ZM8.64 12V0H10.64V12H8.64ZM17.28 16V14H23.28V16H17.28ZM15.28 10V4H17.28V10H15.28ZM23.28 14V12H17.28V10H23.28V4H25.28V14H23.28ZM27.92 12V10H29.92V12H27.92ZM29.92 14V12H35.92V10H29.92V8H35.92V6H37.92V14H29.92ZM29.92 6V4H35.92V6H29.92ZM45.2 14V2H47.2V4H53.2V2H55.2V14H53.2V6H47.2V14H45.2ZM47.2 2V0H53.2V2H47.2ZM65.84 14V6H67.84V14H65.84ZM57.84 14V4H65.84V6H59.84V14H57.84ZM70.48 12V6H72.48V12H70.48ZM72.48 6V4H76.48V6H72.48ZM72.48 14V12H78.48V8H76.48V6H78.48V0H80.48V14H72.48ZM91.12 8V6H93.12V8H91.12ZM83.12 14V4H85.12V6H87.12V8H85.12V14H83.12ZM87.12 6V4H91.12V6H87.12ZM97.76 14V12H105.76V14H97.76ZM95.76 12V6H97.76V8H103.76V6H105.76V10H97.76V12H95.76ZM97.76 6V4H103.76V6H97.76ZM110.4 14V12H118.4V14H110.4ZM108.4 12V6H110.4V8H116.4V6H118.4V10H110.4V12H108.4ZM110.4 6V4H116.4V6H110.4ZM125.04 14V12H127.04V14H125.04ZM123.04 12V10H125.04V12H123.04ZM127.04 12V10H129.04V12H127.04ZM121.04 10V4H123.04V10H121.04ZM129.04 10V4H131.04V10H129.04Z" fill="white"/>
</svg>
