<svg width="142" height="16" viewBox="0 0 142 16" fill="none" xmlns="http://www.w3.org/2000/svg">
<path d="M0 0H2V12H4V14H0V0ZM4 10V12H6V10H4ZM8 0H10V14H8V10H6V6H8V0ZM14.64 8V14H12.64V8H14.64ZM16.64 6V8H14.64V6H16.64ZM16.64 4H22.64V14H20.64V6H16.64V4ZM25.28 4H27.28V6H33.28V8H27.28V12H33.28V14H25.28V4ZM35.28 8V12H33.28V8H35.28ZM39.92 6V8H37.92V6H39.92ZM39.92 10V14H37.92V10H39.92ZM39.92 4H47.92V14H45.92V10H39.92V8H45.92V6H39.92V4ZM55.2 14V4H57.2V8H63.2V2H59.2V0H65.2V14H63.2V10H57.2V14H55.2ZM57.2 4V2H59.2V4H57.2ZM67.84 4H69.84V8H75.84V4H77.84V14H75.84V10H69.84V14H67.84V4ZM88.48 14V16H80.48V14H88.48ZM82.48 6V10H80.48V6H82.48ZM88.48 4V6H82.48V4H88.48ZM82.48 10H88.48V6H90.48V14H88.48V12H82.48V10ZM93.12 4H101.12V6H95.12V12H101.12V14H95.12V16H93.12V4ZM103.12 6V12H101.12V6H103.12ZM113.76 4V6H107.76V4H113.76ZM115.76 12V14H107.76V12H115.76ZM105.76 6H107.76V8H113.76V6H115.76V10H107.76V12H105.76V6ZM126.4 4V6H120.4V4H126.4ZM128.4 12V14H120.4V12H128.4ZM118.4 6H120.4V8H126.4V6H128.4V10H120.4V12H118.4V6ZM131.04 14V4H139.04V6H133.04V8H139.04V10H133.04V12H139.04V14H131.04ZM141.04 6V8H139.04V6H141.04ZM141.04 10V12H139.04V10H141.04Z" fill="currentColor"/>
</svg>
