<svg width="1000" height="1000" viewBox="0 0 1000 1000" fill="none" xmlns="http://www.w3.org/2000/svg">
<rect width="1000" height="1000" fill="white"/>
<path fill-rule="evenodd" clip-rule="evenodd" d="M923.335 142.667C923.335 115.053 900.95 92.667 873.335 92.667H606.668C579.054 92.667 556.668 115.053 556.668 142.667V409.334C556.668 436.949 579.054 459.334 606.668 459.334H873.335C900.95 459.334 923.335 436.949 923.335 409.334V142.667ZM890.001 142.667C890.001 133.462 882.54 126 873.335 126H606.668C597.463 126 590.001 133.462 590.001 142.667V409.334C590.001 418.539 597.463 426 606.668 426H873.335C882.54 426 890.001 418.539 890.001 409.334V142.667Z" fill="#0F0F0F"/>
<path d="M620.109 368.018L692.034 236.157C698.351 224.576 714.98 224.576 721.297 236.157L774.107 332.976L792.195 301.323C798.594 290.126 814.737 290.126 821.135 301.323L859.084 367.731C865.432 378.841 857.409 392.666 844.612 392.666H634.741C622.09 392.666 614.051 379.125 620.109 368.018Z" fill="#0F0F0F"/>
<path d="M839.999 209.333C839.999 227.743 825.075 242.667 806.665 242.667C788.255 242.667 773.332 227.743 773.332 209.333C773.332 190.924 788.255 176 806.665 176C825.075 176 839.999 190.924 839.999 209.333Z" fill="#0F0F0F"/>
<path fill-rule="evenodd" clip-rule="evenodd" d="M923.335 590.667C923.335 563.053 900.95 540.667 873.335 540.667H606.668C579.054 540.667 556.668 563.053 556.668 590.667V857.334C556.668 884.949 579.054 907.334 606.668 907.334H873.335C900.95 907.334 923.335 884.949 923.335 857.334V590.667ZM890.001 590.667C890.001 581.462 882.54 574 873.335 574H606.668C597.463 574 590.001 581.462 590.001 590.667V857.334C590.001 866.539 597.463 874 606.668 874H873.335C882.54 874 890.001 866.539 890.001 857.334V590.667Z" fill="#0F0F0F"/>
<path d="M620.109 816.018L692.034 684.157C698.351 672.576 714.98 672.576 721.297 684.157L774.107 780.976L792.195 749.323C798.594 738.126 814.737 738.126 821.135 749.323L859.084 815.731C865.432 826.841 857.409 840.666 844.612 840.666H634.741C622.09 840.666 614.051 827.125 620.109 816.018Z" fill="#0F0F0F"/>
<path d="M839.999 657.333C839.999 675.743 825.075 690.667 806.665 690.667C788.255 690.667 773.332 675.743 773.332 657.333C773.332 638.924 788.255 624 806.665 624C825.075 624 839.999 638.924 839.999 657.333Z" fill="#0F0F0F"/>
<path d="M77 108.078H455" stroke="black" stroke-width="25" stroke-miterlimit="10"/>
<path d="M77 181.047H348.688" stroke="black" stroke-width="25" stroke-miterlimit="10"/>
<path d="M77 254.016H455" stroke="black" stroke-width="25" stroke-miterlimit="10"/>
<path d="M77 326.984H372.312" stroke="black" stroke-width="25" stroke-miterlimit="10"/>
<path d="M77 399.953H455" stroke="black" stroke-width="25" stroke-miterlimit="10"/>
<path d="M77 472.922H395.938" stroke="black" stroke-width="25" stroke-miterlimit="10"/>
<path d="M77 537.547H465" stroke="black" stroke-width="25" stroke-miterlimit="10"/>
<path d="M77 608.328H355.875" stroke="black" stroke-width="25" stroke-miterlimit="10"/>
<path d="M77 679.109H465" stroke="black" stroke-width="25" stroke-miterlimit="10"/>
<path d="M77 749.891H380.125" stroke="black" stroke-width="25" stroke-miterlimit="10"/>
<path d="M77 820.672H465" stroke="black" stroke-width="25" stroke-miterlimit="10"/>
<path d="M77 891.453H404.375" stroke="black" stroke-width="25" stroke-miterlimit="10"/>
</svg>
